<?xml version="1.0"?>
<svg xmlns:rdf="http://www.w3.org/1999/02/22-rdf-syntax-ns#" xmlns="http://www.w3.org/2000/svg" xmlns:cc="http://web.resource.org/cc/" xmlns:dc="http://purl.org/dc/elements/1.1/" xmlns:svg="http://www.w3.org/2000/svg" id="svg2" viewBox="0 0 495.25 535.93" version="1.0">
  <path id="path4" fill-rule="evenodd" fill="#b2b2b2" d="m78.78 440.23c-10.378 4.45-21.498 12.6-31.135 16.31-51.149-117.13-52.632-187.55-22.239-217.2 5.931 2.22 14.826-2.23 20.016 1.48 8.895 15.57 11.028 34.65 16.218 56.89 0.741 5.93-29.312-2.32-28.571 3.61-4.394 23.64-10.747 35.9 4.212 51.64 10.671 11.24 40.016-35.78 37.793-32.08 22.238 32.62 11.119 109.71 3.706 119.35z"/>
  <path id="path6" fill-rule="evenodd" fill="#ccc" d="m26.889 240.82c10.378-0.74 12.602-3.71 17.791 2.23 4.448 10.37 11.12 18.53 17.05 29.65-18.968-8.05-37.173 1.44-58.279 18.42 2.965 0.74 1.9404-30.28 23.438-50.3z"/>
  <path id="path8" fill-rule="evenodd" fill="#f00" d="m454.62 373.51c-115.64 71.17-233.51 123.8-352.86 159.38-19.273-6.67-62.269-49.66-41.512-71.9 117.86-61.53 301.71-160.86 339.51-169.02 36.33-17.05 64.5 54.86 54.86 81.54z"/>
  <path id="path10" fill-rule="evenodd" fill="#b2b2b2" d="m427.19 285.3c-9.64 3.71-16.31-5.19-25.94-1.48-39.29-101.56-68.2-194.22-80.81-279.47 65.98 25.201 106.75 243.14 106.75 280.95z"/>
  <path id="path12" fill-rule="evenodd" fill="#f66" d="m448.69 367.58c-90.44 57.08-221.65 114.9-336.55 157.16-28.912-5.93-26.688-16.31-18.534-24.46 138.1-84.62 150.8-43.82 281.03-133.54 38.57-17.26 1.6 25.53 74.05 0.84z"/>
  <path id="path14" fill-rule="evenodd" fill="#ccc" d="m324.15 10.277c25.2 83.767 51.89 183.1 77.84 266.87-42.26 35.58-146.78-235-77.84-266.87z"/>
  <path id="path16" fill-rule="evenodd" d="m432.38 283.82c13.34-4.45-34.84-140.11-48.93-204.6l-5.93 15.565c5.93 47.445 40.78 113.42 54.86 189.04z"/>
  <path id="path18" fill-rule="evenodd" d="m400.5 286.04c-48.18-17.05-123.05-217.2-79.32-275.02 17.05-5.1905 43.69 27.857 57.04 60.474 1.48-19.274-37.02-78.266-58.52-70.854-45.22 31.876-16.31 259.46 80.8 285.4z"/>
  <path id="path20" fill-rule="evenodd" d="m340.46 47.342c11.12 59.308 27.43 87.478 31.13 101.56-10.37-34.84-19.27-69.682-22.98-97.11-8.15-16.308-8.89-14.826-8.15-4.448z"/>
  <path id="path22" fill-rule="evenodd" d="m81.745 420.96c9.637-18.54 8.155-68.2-6.671-94.15-8.896 17.79-20.622 36.98-37.065 24.46-10.252-7.8-4.448-34.09-5.931-53.37 0-2.96 22.98 1.48 33.359-2.22-4.448-14.09-18.533-56.34-28.17-55.6l-11.861 1.48c-20.756 24.47-18.532 31.14-20.015 38.55-6.6713 39.29 25.946 136.4 42.996 171.24l-5.189 7.41c-17.05-35.58-51.15-140.1-41.513-182.36 2.2238-7.41-0.0001-14.82 25.204-41.51l14.826-2.96c10.378-1.49 27.428 52.63 31.876 67.45-12.602 4.45-37.806 2.23-37.065 5.19 0.741 20.02-4.227 33.69 6.672 41.52 18.908 13.57 19.273-25.21 32.617-31.14 17.791 22.98 25.945 87.47 5.93 106.01z"/>
  <path id="path24" fill-rule="evenodd" d="m25.406 360.91c-11.86-34.1-9.636-40.77-10.378-48.92 5.189 14.08 6.672 26.68 16.309 42.99 0 8.9-3.707 11.86-5.931 5.93z"/>
  <path id="path26" fill-rule="evenodd" fill="#b2b2b2" d="m326.37 214.13c-2.96 6.68 9.7 32.35 31.93 57.56-66.71-31.88-88.26-53.85-135.71-90.17 45.22-19.28 85.25 20.75 103.78 32.61z"/>
  <path id="path28" fill-rule="evenodd" fill="#ccc" d="m227.78 182.26c51.89 29.65 75.61 47.44 127.5 77.09 39.29 64.5-146.77-28.17-127.5-77.09z"/>
  <path id="path30" fill-rule="evenodd" d="m396.06 283.82c-31.88 14.08-163.83-50.41-169.76-99.34 5.93-11.12 38.55-5.93 60.79 3.71-8.16-10.38-59.31-21.5-66.72-8.16-7.41 37.07 115.64 136.4 175.69 103.79z"/>
  <path id="path32" fill-rule="evenodd" d="m249.28 195.6c35.58 22.98 58.56 28.91 67.46 33.36-22.98-11.86-45.22-24.46-60.79-35.58-12.6-3.71-11.86-2.23-6.67 2.22z"/>
  <path id="path34" fill-rule="evenodd" d="m447.21 367.58c2.96-54.11-17.05-67.45-45.22-71.16-58.57 20.01-278.73 118.61-333.59 160.86-14.083 37.07 8.897 63.75 38.55 68.2 51.89-5.93 326.91-142.33 340.26-157.9zm44.47-55.59c11 17.94-5.25 34.99-23.72 28.91 1.48 8.89 1.48 19.27 0 28.91-32.62 28.17-314.31 165.31-356.56 165.31-23.724 7.41-88.959-37.07-55.6-77.84 63.75-46.7 265.38-138.62 338.03-170.5 25.95-12.6 50.41 0 64.5 25.21 8.2-13.23 23.53-13.7 33.35 0zm-12.6 14.82c-12.05 6.54-22.22-7.33-13.34-17.05 10.07-6.97 20.76 9.25 13.34 17.05z"/>
  <metadata>
    <rdf:RDF>
      <cc:Work>
        <dc:format>image/svg+xml</dc:format>
        <dc:type rdf:resource="http://purl.org/dc/dcmitype/StillImage"/>
        <cc:license rdf:resource="http://creativecommons.org/licenses/publicdomain/"/>
        <dc:publisher>
          <cc:Agent rdf:about="http://openclipart.org/">
            <dc:title>Openclipart</dc:title>
          </cc:Agent>
        </dc:publisher>
        <dc:title>Swiss Army Knife</dc:title>
        <dc:date>2008-01-28T00:46:08</dc:date>
        <dc:description>army, cartoon, clip art, clipart, colour, contour, knife, line art, outline, red, swiss, </dc:description>
        <dc:source>http://openclipart.org/detail/12010/swiss-army-knife-by-klsgfx</dc:source>
        <dc:creator>
          <cc:Agent>
            <dc:title>klsgfx</dc:title>
          </cc:Agent>
        </dc:creator>
        <dc:subject>
          <rdf:Bag>
            <rdf:li>army</rdf:li>
            <rdf:li>cartoon</rdf:li>
            <rdf:li>clip art</rdf:li>
            <rdf:li>clipart</rdf:li>
            <rdf:li>colour</rdf:li>
            <rdf:li>contour</rdf:li>
            <rdf:li>knife</rdf:li>
            <rdf:li>line art</rdf:li>
            <rdf:li>outline</rdf:li>
            <rdf:li>red</rdf:li>
            <rdf:li>swiss</rdf:li>
          </rdf:Bag>
        </dc:subject>
      </cc:Work>
      <cc:License rdf:about="http://creativecommons.org/licenses/publicdomain/">
        <cc:permits rdf:resource="http://creativecommons.org/ns#Reproduction"/>
        <cc:permits rdf:resource="http://creativecommons.org/ns#Distribution"/>
        <cc:permits rdf:resource="http://creativecommons.org/ns#DerivativeWorks"/>
      </cc:License>
    </rdf:RDF>
  </metadata>
</svg>
