<?xml version="1.0" encoding="UTF-8" standalone="no"?>
<!-- Created with Inkscape (http://www.inkscape.org/) -->

<svg
   xmlns:dc="http://purl.org/dc/elements/1.1/"
   xmlns:cc="http://creativecommons.org/ns#"
   xmlns:rdf="http://www.w3.org/1999/02/22-rdf-syntax-ns#"
   xmlns:svg="http://www.w3.org/2000/svg"
   xmlns="http://www.w3.org/2000/svg"
   xmlns:sodipodi="http://sodipodi.sourceforge.net/DTD/sodipodi-0.dtd"
   xmlns:inkscape="http://www.inkscape.org/namespaces/inkscape"
   version="1.1"
   id="svg815"
   xml:space="preserve"
   width="800"
   height="800"
   viewBox="0 0 800 800"
   sodipodi:docname="canopener-publicdomainvectors.org.svg"
   inkscape:version="0.92.4 (5da689c313, 2019-01-14)"><metadata
     id="metadata821"><rdf:RDF><cc:Work
         rdf:about=""><dc:format>image/svg+xml</dc:format><dc:type
           rdf:resource="http://purl.org/dc/dcmitype/StillImage" /><dc:title></dc:title><cc:license
           rdf:resource="http://creativecommons.org/publicdomain/zero/1.0/" /></cc:Work><cc:License
         rdf:about="http://creativecommons.org/publicdomain/zero/1.0/"><cc:permits
           rdf:resource="http://creativecommons.org/ns#Reproduction" /><cc:permits
           rdf:resource="http://creativecommons.org/ns#Distribution" /><cc:permits
           rdf:resource="http://creativecommons.org/ns#DerivativeWorks" /></cc:License></rdf:RDF></metadata><defs
     id="defs819"><clipPath
       clipPathUnits="userSpaceOnUse"
       id="clipPath831"><path
         d="M 0,600 H 600 V 0 H 0 Z"
         id="path829"
         inkscape:connector-curvature="0" /></clipPath></defs><sodipodi:namedview
     pagecolor="#ffffff"
     bordercolor="#666666"
     borderopacity="1"
     objecttolerance="10"
     gridtolerance="10"
     guidetolerance="10"
     inkscape:pageopacity="0"
     inkscape:pageshadow="2"
     inkscape:window-width="1920"
     inkscape:window-height="1018"
     id="namedview817"
     showgrid="false"
     inkscape:zoom="1.06125"
     inkscape:cx="400"
     inkscape:cy="400"
     inkscape:window-x="-8"
     inkscape:window-y="-8"
     inkscape:window-maximized="1"
     inkscape:current-layer="g823" /><g
     id="g823"
     inkscape:groupmode="layer"
     inkscape:label="canopener-publicdomainvectors.org"
     transform="matrix(1.3333333,0,0,-1.3333333,0,800)"><g
       id="g825"><g
         id="g827"
         clip-path="url(#clipPath831)"><path
           d="m 188.726,453.753 c -3.707,-1.683 -7.818,-2.628 -12.153,-2.628 -16.253,0 -29.427,13.175 -29.427,29.428 0,0.775 0.039,1.538 0.097,2.297 3.695,10.006 13.33,17.163 24.604,17.163 14.457,0 26.218,-11.763 26.218,-26.219 0,-8.031 -3.634,-15.228 -9.339,-20.041 m -16.879,52.681 c -17.996,0 -32.638,-14.642 -32.638,-32.64 0,-17.998 14.642,-32.639 32.638,-32.639 17.998,0 32.639,14.641 32.639,32.639 0,17.998 -14.641,32.64 -32.639,32.64 m 274.608,-354.373 -0.248,-0.248 c -9.924,-9.925 -57.284,-47.746 -62.709,-51.542 -1.2,-0.839 -5.208,-2.172 -10.859,-2.172 h -0.001 c -4.721,0 -16.367,1.063 -22.575,10.888 -5.005,7.923 -19.755,29.828 -40.168,60.146 -52.152,77.46 -139.442,207.102 -174.866,268.281 -12.03,20.777 -21.135,44.813 2.548,65.534 16.647,14.568 69.705,36.593 111.736,36.593 15.622,0 27.911,-2.98 36.679,-8.853 -22.061,-10.444 -53.632,-30.681 -68.895,-65.395 -14.28,-32.477 -10.939,-70.242 9.929,-112.247 45.098,-90.777 54.948,-108.708 55.045,-108.875 l 2.069,-3.748 6.422,6.466 3.145,-7.187 22.606,22.972 9.397,-13.918 c 17.634,-26.094 37.622,-55.668 48.104,-72.249 3.392,-5.365 8.567,-7.72 13.524,-7.72 2.863,0 5.657,0.787 7.992,2.235 2.566,1.592 4.792,4.114 6.024,7.502 4.986,4.682 6.675,13.825 -0.988,26.432 -12.985,21.361 -42.709,67.983 -55.01,87.231 l 14.926,15.167 c 5.44,-11.625 15.7,-26.001 30.198,-26.001 3.894,0 7.858,1.053 11.776,3.131 4.501,2.389 7.807,7.902 10.22,11.924 0.085,0.138 0.172,0.284 0.262,0.432 12.818,-29.285 34.783,-80.495 43.693,-104.795 8.05,-21.956 0.095,-29.913 -9.976,-39.984 m -137.797,380.788 10.804,-18.71 c -8.127,-4.696 -29.719,-17.524 -34.727,-24.082 -4.881,-6.391 -6.058,-12.222 -3.597,-17.822 2.429,-5.536 50.912,-91.882 56.691,-100.137 3.669,-5.243 7.657,-6.344 10.356,-6.344 2.467,0 4.97,0.902 7.243,2.606 1.705,1.278 22.843,19.238 32.495,27.898 l 7.088,-13.37 -117.437,-116.179 c -8.024,15.666 -21.823,42.948 -44.798,89.193 -19.981,40.221 -23.279,76.156 -9.802,106.806 20.547,46.731 72.619,65.965 85.684,70.141 m 16.238,-29.986 c 10.375,-14.4 44.623,-73.057 55.32,-91.465 -11.144,-0.562 -24.384,-9.498 -29.817,-19.135 -14.719,22.737 -53.58,84.277 -56.249,88.507 -0.67,1.782 0.226,4.982 2.324,8.237 4.505,6.989 14.071,14.041 25.296,14.041 1.04,0 2.086,-0.063 3.126,-0.185 m -36.526,-24.909 0.208,-0.389 c 0.3,-0.475 42.613,-67.159 59.288,-93.392 l -6.5,-5.75 c -15.874,27.475 -52.64,92.499 -54.349,96.393 -1.034,2.353 -0.856,4.859 0.532,7.697 -0.053,-1.658 0.205,-3.201 0.821,-4.559 m 91.034,-78.45 c -0.516,0.823 -1.908,0.944 -2.687,0.944 -2.448,0 -5.685,-1.118 -8.662,-2.993 -5.606,-3.533 -7.706,-7.83 -6.745,-9.355 0.517,-0.824 1.906,-0.947 2.687,-0.947 1.473,0 3.233,0.412 5.05,1.145 -1.726,-1.483 -3.44,-2.95 -5.083,-4.354 -1.459,-1.246 -2.86,-2.437 -4.164,-3.545 -0.214,-0.009 -0.438,-0.039 -0.646,-0.039 h -10e-4 c -2.814,0 -4.865,1.048 -5.774,2.493 -2.225,3.532 2.267,12.115 12.271,18.418 5.431,3.422 11.377,5.466 15.91,5.466 2.786,0 4.82,-0.904 5.743,-2.324 l -0.691,-0.653 c -1.002,-0.946 -2.383,-2.198 -4.006,-3.646 -1.003,-0.897 -2.1,-1.865 -3.271,-2.893 0.362,0.975 0.385,1.781 0.069,2.283 M 285.667,251.069 c -1.338,2.542 -3.438,6.571 -6.556,12.643 l 117.471,116.213 5.948,-11.221 z m 107.971,-77.318 c -5.042,-3.132 -12.822,-2.308 -17.109,4.474 -10.51,16.619 -30.513,46.214 -48.159,72.328 l -9.761,14.454 20.872,21.21 c 9.623,-15.049 40.815,-63.915 54.653,-86.676 8.303,-13.661 4.922,-22.43 -0.496,-25.79 m 70.534,26.159 c -8.829,24.079 -31.03,75.982 -45.482,108.886 -0.728,1.66 -2.013,-0.281 -3.827,-3.289 -0.479,0.224 -1.005,0.349 -1.558,0.349 -2.646,0 -4.034,-2.313 -6.334,-6.147 -1.353,-2.252 -3.038,-5.055 -4.877,-7.135 -19.3,-6.949 -32.565,16.733 -36.897,29.442 l 45.221,45.519 -18.32,34.558 0.557,0.637 -3.663,6.336 c -1.975,3.42 -48.523,83.888 -59.75,98.723 l -0.772,1.019 -1.26,0.21 c -1.044,0.173 -2.098,0.282 -3.154,0.357 0.489,0.279 0.956,0.545 1.377,0.785 l 2.821,1.593 -16.569,28.693 -2.414,-0.696 c -1.52,-0.438 -5.646,-1.695 -11.413,-3.942 -32.175,30.984 -120.005,2.735 -151.974,-19.31 -5.129,-3.017 -9.405,-5.977 -12.537,-8.719 -27.652,-24.196 -15.455,-53.583 -3.873,-73.582 35.532,-61.367 122.897,-191.122 175.095,-268.647 20.384,-30.278 35.112,-52.148 40.067,-59.992 7.912,-12.525 22.218,-13.879 28.002,-13.879 h 0.001 c 5.941,0 11.65,1.306 14.543,3.333 5.584,3.909 53.109,41.803 63.565,52.262 l 0.247,0.247 c 6.955,6.955 14.061,14.077 15.019,25.93 2.373,6.532 2.451,14.755 -1.841,26.459"
           style="fill:#231f20;fill-opacity:1;fill-rule:nonzero;stroke:none"
           id="path833"
           inkscape:connector-curvature="0" /></g></g></g></svg>