<?xml version="1.0"?>
<svg xmlns:rdf="http://www.w3.org/1999/02/22-rdf-syntax-ns#" xmlns="http://www.w3.org/2000/svg" xmlns:cc="http://web.resource.org/cc/" xmlns:xlink="http://www.w3.org/1999/xlink" xmlns:dc="http://purl.org/dc/elements/1.1/" xmlns:svg="http://www.w3.org/2000/svg" id="Layer_1" xml:space="preserve" overflow="visible" viewBox="0 0 201.974 88.49" version="1.1" enable-background="new 0 0 201.974 88.49">
<g clip-rule="evenodd" fill-rule="evenodd">
	<path stroke="#000" stroke-width=".036" stroke-miterlimit="10" d="m162.28 59.816c-1.296-3.779-2.592-7.559-4.032-11.879-1.548-4.284-3.456-10.26-4.607-13.644-1.188-3.492-1.368-4.86-2.196-6.876-1.008-2.16-2.088-3.924-2.952-5.292-0.864-1.44-1.296-2.34-1.836-2.844-0.612-0.468-0.54-0.432-1.584-0.036-1.224 0.216-3.78 1.296-4.896 1.836-1.08 0.54-1.367 0.108-1.439 1.332-0.252 1.224 0.036 3.744 0.468 5.472 0.288 1.584 1.116 2.484 2.088 3.816 1.044 1.224 2.7 1.908 3.996 3.6 1.188 1.62 2.7 4.284 3.168 6.048 0.36 1.62-0.324 2.7-0.684 3.78-0.433 0.936-0.756 1.549-1.513 2.268-0.792 0.576-2.159 1.549-2.987 1.801-0.828 0.18-1.765-0.072-2.124-0.324-0.433-0.324-0.396-1.295-0.576-1.404-0.324-0.287-1.044-0.035-1.188 0.361-0.288 0.359-0.54 1.402-0.359 2.303 0.18 0.828 0.54 2.197 1.08 2.844 0.432 0.504 0.792 0.613 1.367 0.721 0.505 0.035 0.828-0.287 1.368-0.145 0.36 0 0.828 0.217 1.009 0.504 0.035 0.324-0.396 0.973-0.469 1.404-0.216 0.217-0.396 0.359-0.396 0.576-0.072 0.18-0.108 0.072 0.288 0.936 0.323 0.865 0.972 2.197 1.8 4.141 5.72-0.433 11.44-0.865 17.2-1.299z"/>
	<path stroke="#000" stroke-width=".036" stroke-miterlimit="10" d="m161.71 59.35c-0.576-1.764-1.296-3.889-2.16-6.516-1.044-2.736-2.124-6.301-3.24-9.325-1.151-3.06-2.268-6.372-3.06-8.82-0.9-2.448-1.224-4.5-1.8-6.012-0.504-1.692-1.188-2.196-1.764-3.6-0.721-1.44-2.232-4.032-2.736-4.86-0.648-0.9-0.648-0.792-1.116-0.648-0.647 0.036-1.188 0.252-2.016 0.648-0.864 0.252-1.944 0.612-2.664 0.936-0.685 0.288-1.225 0.36-1.477 0.792-0.288 0.216-0.54 0.432-0.468 1.188-0.072 0.756 0.072 2.196 0.288 3.348 0.072 1.008 0.324 1.8 0.756 2.808 0.396 0.864 1.368 2.088 2.088 2.844 0.576 0.612 1.368 0.9 1.944 1.404 0.504 0.396 0.792 0.828 1.296 1.44 0.36 0.504 0.828 1.08 1.26 1.872 0.468 0.756 1.008 1.836 1.477 2.808 0.359 0.828 0.54 1.764 0.684 2.52 0.108 0.792-0.072 1.404-0.252 2.233-0.252 0.756-0.648 1.547-1.188 2.375-0.648 0.684-1.477 1.477-2.196 1.98s-1.477 0.756-2.124 0.9c-0.72 0.143-1.729-0.145-2.052-0.182-0.469-0.252-0.504-0.467-0.54-0.646-0.108-0.289-0.108-0.504-0.145-0.648-0.18-0.217-0.324-0.359-0.432-0.289-0.181-0.035-0.433 0.072-0.468 0.469-0.145 0.432-0.217 1.08-0.072 1.801 0 0.611 0.432 1.475 0.756 2.016 0.252 0.467 0.576 0.791 0.972 0.973 0.36 0.035 0.937 0.035 1.44 0 0.468-0.109 0.756-0.072 1.152 0.107 0.287 0.18 0.539 0.684 0.611 1.225-0.072 0.432-0.432 1.043-0.936 1.691l1.836 4.5c5.44-0.432 10.88-0.866 16.35-1.332z" fill="#fff"/>
	<path stroke="#000" stroke-width=".036" stroke-miterlimit="10" d="m151.52 33.141l-4.933 1.296c0.9-0.036 1.836-0.144 2.809-0.324 0.936-0.288 2.304-0.792 2.735-0.936 0.35-0.18 0.1-0.144-0.62-0.036z"/>
	<path stroke="#000" stroke-width=".036" stroke-miterlimit="10" d="m201.96 27.309c-0.072 1.764-0.54 3.852-1.404 6.12-1.044 2.304-1.332 4.284-4.067 7.596-2.772 3.204-6.805 6.805-12.097 11.771-5.399 4.896-11.88 10.584-19.836 17.461l-1.224 0.863-8.64-11.016c0.575-0.973 1.367-1.621 1.979-2.34 0.612-0.756 1.152-1.512 2.017-1.691 0.684-0.217 1.979 0.359 2.771 0.756 0.756 0.18 1.44 1.008 2.052 0.971 0.54-0.107 0.648-0.9 1.008-1.26 0.217-0.396 0.108-0.576 0.505-0.936 0.252-0.541-0.217 0.18 1.655-1.729 1.872-2.016 6.229-6.588 9.721-9.828 3.348-3.419 7.487-7.271 10.476-9.755 2.808-2.412 4.86-3.708 6.696-4.716 1.872-1.08 2.664-1.62 4.176-1.908 1.35-0.395 2.76-0.467 4.2-0.359z"/>
	<path stroke="#000" stroke-width=".036" stroke-miterlimit="10" d="m201.67 27.633c-0.324 1.728-0.647 3.168-1.116 4.716-0.468 1.44-0.936 2.7-1.548 4.068-0.647 1.188-1.116 2.268-2.376 3.816-1.332 1.548-3.275 3.348-5.544 5.688-2.34 2.123-4.788 4.572-8.46 7.883-3.78 3.313-10.476 9.109-13.68 11.988-3.204 2.771-5.076 4.32-5.473 4.645l-8.243-10.297c0.756-1.08 1.439-1.908 2.052-2.482 0.504-0.686 0.647-1.117 1.26-1.152 0.54-0.18 1.548 0.324 2.196 0.539 0.54 0.18 1.044 0.396 1.368 0.648 0.252-0.107 0.792 0.324 1.764 1.008 0.9 0.684 2.16 1.764 3.78 3.24-0.181-0.432-0.648-1.045-1.116-1.691-0.612-0.756-1.225-1.584-2.124-2.484 0.036-0.613 0.36-1.225 0.972-1.98 0.433-0.756 0.937-0.9 2.484-2.375 1.584-1.693 4.392-4.43 6.876-6.842 2.412-2.555 4.932-5.219 7.271-7.415 2.088-2.196 3.996-3.708 5.868-5.22 1.872-1.584 3.744-2.916 5.473-3.852 1.584-1.044 3.096-1.729 4.535-2.052 1.34-0.469 2.6-0.505 3.79-0.397z" fill="#fff"/>
	<path d="m201.67 27.633c-1.8 0.18-3.563 0.792-5.292 1.548-1.836 0.684-2.771 1.26-5.328 3.132-2.556 1.872-5.939 4.464-10.008 7.92 1.656-1.908 3.24-3.492 5.148-5.04 1.836-1.62 3.708-2.952 5.76-4.14 1.943-1.296 4.248-2.484 5.939-3.024 1.62-0.648 2.88-0.648 3.78-0.396z" fill="#fff"/>
	<path stroke="#000" stroke-width=".036" stroke-miterlimit="10" d="m197.17 38.146c-2.124 2.088-3.815 3.636-5.22 5.184-1.44 1.333-2.196 2.231-3.24 3.384-1.152 1.225-2.34 2.232-3.563 3.564 1.512-1.152 2.951-2.195 4.464-3.564 1.439-1.439 2.88-2.952 4.176-4.392 1.25-1.405 2.33-2.845 3.38-4.176z"/>
	<path stroke="#000" stroke-width=".036" stroke-miterlimit="10" d="m55.327 63.705c0.468-2.268 1.62-4.969 3.456-8.641 1.764-3.672 4.932-9.035 7.272-13.031 2.268-4.176 4.86-8.64 6.408-11.16 1.404-2.448 1.26-2.376 2.34-3.384 0.972-1.152 2.268-2.268 3.744-3.348l3.24 1.692-0.18 2.304c0.612 0.792 1.044 1.764 1.44 3.06 0.324 1.296 0.612 3.096 0.72 4.572 0.072 1.368-0.288 2.736-0.396 3.816-0.18 1.044-0.504 1.8-0.828 2.412-1.368-0.612-2.7-1.152-3.708-1.62-1.152-0.576-2.016-1.08-2.736-1.368-0.756-0.36-1.188-0.432-1.692-0.072-0.648 0.36-0.9 1.08-1.728 2.556-0.936 1.476-2.628 4.249-3.42 5.94-0.864 1.477-1.332 2.123-1.404 3.203-0.108 1.08 0.324 2.305 1.008 3.096 0.648 0.648 1.764 1.045 2.772 1.045 0.9-0.072 1.908-0.541 2.736-1.115 0.684-0.648 1.224-1.621 1.62-2.377 0.216-0.863 0.108-1.98 0.36-2.375 0.144-0.469 0.864-0.396 1.188-0.072 0.252 0.252 0.612 1.043 0.648 1.979-0.036 0.828-0.18 1.908-0.72 3.24-0.72 1.404-1.62 2.844-2.7 4.609-1.116 1.547-2.268 3.168-3.6 4.859-5.256 0.036-10.548 0.108-15.84 0.18z"/>
	<path stroke="#000" stroke-width=".036" stroke-miterlimit="10" d="m56.119 62.697c0.864-2.484 1.98-4.969 3.492-7.992 1.404-3.061 3.24-6.264 5.22-9.756 2.016-3.6 4.752-8.352 6.408-11.052 1.404-2.736 2.016-3.708 2.808-4.86 0.756-1.296 1.332-1.44 2.124-2.232 0.684-0.684 1.584-1.548 2.412-2.196l2.664 1.44 0.108 2.88c0.54 0.9 1.044 1.836 1.368 2.952 0.288 1.044 0.54 2.448 0.612 3.528 0.036 1.008 0.036 1.692-0.144 2.736-0.216 1.044-0.504 1.98-0.864 3.24-1.8-0.936-3.204-1.728-4.356-2.232-1.116-0.648-1.908-1.008-2.52-1.08-0.648-0.216-1.116 0.108-1.548 0.576-0.54 0.504-1.116 1.44-1.728 2.52-0.684 0.972-1.404 2.196-2.16 3.672-0.828 1.439-2.016 3.672-2.448 5.039-0.504 1.297-0.36 2.053 0.036 2.953 0.468 0.756 1.476 1.799 2.592 2.16 0.972 0.287 2.34 0.215 3.276-0.072 0.792-0.361 1.26-0.9 1.836-1.477 0.432-0.721 0.972-1.477 1.224-2.125 0.144-0.646 0.072-1.223 0.216-1.584 0.072-0.359 0.252-0.684 0.396-0.574 0.072 0.07 0.36 0.322 0.468 0.898 0.108 0.361 0.216 0.973 0.036 1.98-0.432 0.973-1.152 2.844-1.764 3.961-0.648 1.008-0.936 1.223-1.692 2.447-0.828 1.152-1.908 2.699-3.24 4.645-4.932-0.108-9.864-0.25-14.832-0.395z" fill="#fff"/>
	<path stroke="#000" stroke-width=".036" stroke-miterlimit="10" d="m79.771 29.937c-1.332 0.432-2.448 1.188-3.636 2.124-1.26 0.936-2.664 2.376-3.24 3.492-0.612 1.008-0.612 1.944-0.144 2.808 0-0.864 0.396-1.62 1.044-2.664 0.612-1.044 1.836-2.484 2.844-3.348 0.972-0.936 2.016-1.836 3.132-2.412z"/>
	<path stroke="#000" stroke-width=".036" stroke-miterlimit="10" d="m0.139 0.021c3.42 0.684 6.408 1.944 9.396 3.78 2.88 1.764 5.148 4.14 7.92 6.984 2.628 2.664 4.536 5.04 8.064 9.36 3.456 4.32 9.216 11.88 12.816 16.452 3.492 4.428 6.336 7.883 8.1 10.081 1.656 2.016 1.224 1.656 1.764 2.375 0.432 0.721 0.828 1.008 1.044 1.693 0.036 0.539-0.144 1.15 0.036 1.691 0.144 0.432 0.576 0.791 1.152 1.08 0.936-0.396 1.728-0.648 2.376-0.611 0.612-0.182 0.756-0.145 1.548 0.539 0.756 0.648 1.512 1.871 3.096 3.816 1.548 1.871 3.492 4.355 5.976 7.451l-10.332 9.038c-0.828-0.324-2.16-1.297-3.852-3.061-1.728-1.764-3.24-3.527-6.624-7.381-3.564-3.959-9.648-11.016-14.22-16.02-4.572-5.112-9.216-10.116-12.816-14.328-3.672-4.32-6.768-7.704-9-11.124-2.304-3.456-3.564-6.552-4.608-9.288-1.116-2.915-1.404-5.471-1.692-7.523-0.324-2.124-0.324-3.744-0.144-5.004z"/>
	<path d="m62.707 64.641c-1.332-1.764-2.592-3.455-3.78-4.932-1.332-1.656-2.52-3.023-3.42-4.104-0.936-1.115-1.26-1.873-1.944-2.125-0.792-0.322-1.584 0-2.52 0.434-1.008 0.322-1.656 0.756-2.916 1.727-1.404 0.973-4.5 3.24-5.004 3.602-0.504 0.18 0.936-1.549 1.944-2.27 0.864-0.898 2.628-2.016 3.348-2.664 0.576-0.684 0.324-0.791 0.36-1.295 0.072-0.648-0.144-1.621-0.252-2.232-0.324-0.684 0.144 0-1.116-1.691-1.332-1.836-4.104-5.292-6.516-8.568-2.592-3.276-5.616-7.308-8.244-10.548-2.628-3.312-5.076-6.336-7.2-8.928-2.16-2.628-3.744-4.968-5.436-6.876-1.728-1.944-3.24-3.276-4.932-4.824-1.836-1.656-3.564-3.672-5.58-4.932-2.124-1.333-4.644-2.269-6.192-2.81-1.512-0.612-2.412-0.864-2.7-0.756-0.18 0.972-0.108 2.304 0.216 4.14 0.18 1.8 0.468 3.996 1.404 6.588 0.936 2.52 2.412 5.904 4.14 8.64 1.512 2.664 3.24 4.248 5.724 7.38 2.448 3.06 5.328 6.444 9.18 10.836 3.816 4.32 9.504 10.584 13.32 14.76 3.636 4.068 6.192 7.02 8.496 9.684 2.196 2.52 3.6 4.285 5.04 5.832 1.404 1.512 2.412 2.52 3.312 3.313 0.864 0.756 1.332 1.008 1.692 1.043 3.168-2.807 6.372-5.616 9.576-8.424z" fill="#fff"/>
	<path stroke="#000" stroke-width=".036" stroke-miterlimit="10" d="m166.93 76.053c-0.936-1.26-1.691-2.52-2.124-3.924-0.504-1.512-0.432-3.131-0.611-4.428-0.288-1.367-0.469-2.16-0.937-3.203-0.576-1.189-1.08-2.305-2.34-3.35-1.296-1.15-2.231-2.412-5.436-3.096-3.385-0.791-6.517-1.043-14.257-1.152-7.884-0.07-22.212 0.434-32.292 0.828-10.332 0.289-20.375 0.504-28.332 1.045-7.956 0.396-14.256 0.828-18.612 1.691-4.32 0.756-5.724 1.549-7.416 3.348-1.872 1.836-3.024 4.824-3.312 7.164-0.396 2.27 0.612 4.141 1.512 5.904 0.828 1.621 2.088 2.736 3.636 3.637-0.612 1.225-0.072 1.943 1.62 2.557 1.548 0.395 3.528 0.611 8.46 0.646 5.004 0 11.844-0.324 21.096-0.395 9.216-0.217 25.164-0.289 33.408-0.217 7.992 0.107 9.72 0.252 14.508 0.576 4.645 0.18 10.116 0.287 13.645 0.324 3.42-0.18 5.363-0.361 7.199-0.828 1.801-0.469 3.132-1.26 3.853-1.836 0.684-0.721 0.684-1.477 0.144-2.268l0.685-0.686c0.359 0.504 0.684 0.938 1.115 1.297 0.433 0.359 0.828 0.432 1.332 0.611 0.324 0.684 0.973 1.404 1.656 2.305 0.72 0.828 1.477 1.729 2.664 2.699 1.116 0.9 2.7 1.945 3.924 2.557 1.116 0.504 1.98 0.611 2.736 0.611 0.647-0.072 1.044-0.432 1.188-0.936 0.324-0.035 0.576-0.359 0.757-0.684 0.144-0.396 0.252-0.936 0.18-1.621-0.36-0.826-0.72-2.123-1.477-3.059-0.792-1.117-1.907-2.016-2.808-2.844-0.936-0.686-1.908-1.297-2.771-1.693-0.94-0.535-1.8-1.112-2.59-1.58zm0.18 2.808c-0.108 0.107-0.108 0.324-0.288 0.504-0.108 0.145-0.396 0.396-0.576 0.611 0.18 0.469 0.612 1.152 1.44 1.908 0.756 0.684 2.447 2.16 3.275 2.773 0.685 0.504 0.9 0.719 1.477 0.936 0.575 0.215 1.224 0.287 1.943 0.359-0.036-0.539-0.324-1.115-0.864-1.871-0.647-0.756-1.728-2.018-2.556-2.664-0.864-0.793-1.8-1.404-2.412-1.836-0.61-0.433-1.19-0.72-1.44-0.72zm-2.34-2.447c-0.288-0.182-0.505-0.217-0.793-0.109-0.432 0.072-0.72 0.289-0.863 0.648-0.181 0.217-0.145 0.648-0.036 1.008 0.072-0.359 0.18-0.576 0.324-0.648 0.071-0.143 0.18-0.143 0.323 0 0.072-0.252 0.252-0.395 0.396-0.576 0.14-0.18 0.36-0.288 0.65-0.323zm0.65 2.051c0.072-0.18 0.252-0.324 0.252-0.432 0.072-0.217-0.036-0.359-0.036-0.576-0.252 0.145-0.324 0.252-0.359 0.469-0.03 0.142-0.03 0.324 0.15 0.539z"/>
	<path stroke="#000" stroke-width=".036" stroke-miterlimit="10" d="m167.43 77.961c0.505 0.037 1.044 0.217 1.908 0.684 0.792 0.434 1.908 1.008 2.916 1.873 0.937 0.791 1.872 1.943 2.521 2.879 0.576 0.793 0.611 1.549 0.792 2.125 0.107 0.432 0.071 0.756-0.252 0.828-0.504 0.072-1.584-0.18-2.269-0.324-0.72-0.324-1.224-0.359-1.908-0.936-0.936-0.648-1.979-1.621-2.699-2.232-0.721-0.576-1.009-0.828-1.404-1.297-0.648-0.756-1.152-1.584-1.512-2.195-0.433-0.539-0.612-0.863-0.54-1.115-0.036-0.396 0.216-0.756 0.611-1.08-0.144-0.289-0.252-0.361-0.323-0.504-0.072-0.072-0.324-0.217-0.36-0.145-0.396 0.035-0.648 0.252-0.756 0.504-0.181 0.18-0.324 0.432-0.145 0.9 0.108 0.359 0.396 1.152 0.864 1.836 0.36 0.611 0.937 1.547 1.584 2.268 0.504 0.721 1.152 1.115 1.944 1.871 0.756 0.721 1.584 1.369 2.628 2.09 1.008 0.539 2.52 1.078 3.42 1.33 0.828 0.037 1.116-0.07 1.548-0.322 0.324-0.289 0.36-0.648 0.504-0.938 0.108-0.287-0.072-0.576-0.144-1.008-0.216-0.646-0.504-1.367-0.864-2.016-0.36-0.684-0.864-1.26-1.368-1.871-0.647-0.686-1.368-1.332-2.016-1.801-0.828-0.611-1.62-1.008-2.232-1.332-0.468-0.396-1.008-0.469-1.224-0.611-0.504-0.18-0.792-0.289-1.26-0.324 0 0.215 0.071 0.396 0.071 0.539-0.04 0.144 0 0.252-0.04 0.324z" fill="#fff"/>
	<path stroke="#000" stroke-width=".036" stroke-miterlimit="10" d="m167.29 78.682c0.288 0 0.72 0.18 1.296 0.539 0.54 0.289 1.116 0.793 1.872 1.369 0.576 0.611 1.368 1.188 1.944 1.871 0.575 0.541 0.863 1.08 1.26 1.477 0.252 0.396 0.468 0.611 0.647 1.043 0.145 0.396 0.253 0.613 0.324 1.045 0.145 0.107 0.36 0.072 0.504 0.035 0.072-0.143 0.252-0.035 0.252-0.359-0.071-0.324-0.216-0.936-0.432-1.439-0.324-0.684-0.828-1.26-1.224-1.873-0.433-0.611-0.937-1.008-1.368-1.475-0.685-0.434-1.26-1.189-1.872-1.441-0.612-0.324-1.044-0.719-1.44-0.791-0.576-0.18-0.828-0.432-1.151-0.469-0.216-0.107-0.504-0.145-0.469-0.107-0.03 0.178-0.07 0.358-0.14 0.575z" fill="#fff"/>
	<path stroke="#000" stroke-width=".036" stroke-miterlimit="10" d="m175.46 87.537c-0.252 0.359-0.54 0.541-0.864 0.684-0.396 0.109-0.684 0.037-1.296-0.072-0.863-0.18-1.764-0.611-2.844-1.15-1.116-0.686-2.448-1.801-3.42-2.664-1.044-1.045-1.836-1.908-2.376-2.736-0.576-0.756-1.008-1.439-1.152-1.908-0.216-0.576-0.359-1.08-0.288-1.369-0.107-0.432 0.108-0.432 0.217-0.539 0.071-0.145 0.18-0.217 0.323-0.217-0.107 0.037-0.071 0.504 0.252 1.01 0.181 0.432 0.792 1.619 1.296 2.303 0.469 0.648 1.009 1.404 1.62 1.98 0.433 0.504 0.792 0.791 1.477 1.404 0.647 0.504 1.512 1.367 2.448 1.908 0.792 0.467 1.8 0.863 2.628 1.188 0.67 0.25 1.47 0.215 1.97 0.178z" fill="#fff"/>
	<path stroke="#000" stroke-width=".036" stroke-miterlimit="10" d="m164.52 71.914c0.072 0.576 0.36 0.971 0.576 1.584 0.181 0.576 0.576 0.971 0.9 1.584 0.252 0.467 0.72 1.15 0.972 1.619 0.181 0.396 0.216 0.611 0.252 1.045 0 0.252-0.144 0.719-0.288 1.008-0.18 0.287-0.504 0.611-0.828 0.971l-0.575-1.08c0.216-0.287 0.359-0.467 0.432-0.828-0.072-0.395-0.18-0.826-0.324-1.15-0.144-0.361-0.432-0.648-0.72-0.721-0.36-0.107-1.08 0-1.332 0.18-0.324 0.107-0.576 0.396-0.612 0.721-0.18 0.252-0.18 0.719-0.144 1.008-0.072 0.252 0.072 0.504 0.144 0.611-0.071 0.217-0.107 0.396 0.036 0.684 0.072 0.252 0.216 0.613 0.433 0.938-0.433-0.145-0.937-0.361-1.225-0.648-0.359-0.396-0.647-0.684-0.864-1.26 0.36-0.396 0.648-0.684 1.009-1.152 0.323-0.469 0.468-0.973 0.828-1.512 0.18-0.613 0.575-1.439 0.791-1.945 0.2-0.577 0.38-1.225 0.53-1.657z" fill="#fff"/>
	<path stroke="#000" stroke-width=".036" stroke-miterlimit="10" d="m160.12 79.33c0.252 0.252 0.36 0.611 0.324 0.936s-0.18 0.756-0.72 1.152c-0.721 0.432-1.549 0.898-3.024 1.402-1.62 0.254-3.636 0.469-5.76 0.648-2.124 0.109-4.752 0.217-6.624 0.18-1.98-0.107-3.24-0.143-4.896-0.252-1.691-0.107-3.672-0.252-5.544-0.432 3.528 0.037 6.805 0 9.973-0.107s6.516-0.359 8.928-0.611c2.195-0.361 3.492-0.721 4.716-1.225 1.22-0.468 2.05-1.08 2.62-1.691z" fill="#fff"/>
	<path stroke="#000" stroke-width=".036" stroke-miterlimit="10" d="m164.01 72.381c-0.18 0.432-0.323 0.936-0.432 1.369-0.216 0.395-0.396 0.828-0.54 1.295-0.144 0.361-0.468 0.684-0.576 0.973l-3.672-0.289 0.288-3.707c1.62 0.107 3.28 0.214 4.93 0.359z" fill="#fff"/>
	<path stroke="#000" stroke-width=".036" stroke-miterlimit="10" d="m56.767 80.984c-0.18 0.109-0.18 0.324-0.144 0.506-0.036 0.215-0.036 0.395 0.396 0.684 0.396 0.287 0.936 0.395 2.016 0.719 0.972 0.109 2.376 0.324 4.068 0.361 1.656 0.035 3.744 0 6.12 0.035 2.376-0.035 5.04-0.145 8.136-0.18-2.016-0.18-4.284-0.324-6.66-0.432-2.484-0.109-5.94-0.252-7.74-0.289-1.8-0.215-2.376-0.215-3.276-0.432-1.044-0.251-2.016-0.575-2.916-0.972z" fill="#fff"/>
	<path stroke="#000" stroke-width=".036" stroke-miterlimit="10" d="m162.18 76.449c-0.576 0.684-1.151 1.188-1.872 1.908-0.72 0.684-1.26 1.188-2.447 1.908-1.261 0.432-2.845 1.225-5.292 1.547-2.736 0.289-6.732 0.434-10.044 0.576-3.349 0.037-4.717 0.145-9.792 0.18-5.221 0.037-14.005-0.143-20.952 0-7.057-0.07-15.372 0.182-20.664 0.217-5.256-0.035-7.668 0-10.728-0.035-3.204-0.072-5.58-0.324-8.1-0.361-2.484-0.143-4.824-0.215-7.02-0.359-2.376-0.217-5.328-0.432-7.056-0.936-1.872-0.756-2.808-1.693-3.78-2.809-1.08-1.188-1.764-2.52-2.196-3.852-0.396-1.404-0.648-2.592-0.36-3.996 0.072-1.512 0.864-2.844 1.548-4.141 0.648-1.367 1.728-2.484 2.844-3.348 1.008-0.9 2.124-1.225 3.924-1.656 1.728-0.539 4.284-0.936 6.84-1.188 2.484-0.289 5.076-0.359 8.316-0.504 3.204-0.217 6.588-0.359 10.98-0.576 4.356-0.289 9.648-0.504 14.904-0.648 5.075-0.215 9.756-0.324 15.983-0.467 6.229-0.252 15.876-0.469 21.024-0.504 4.932-0.145 6.408 0.035 8.892 0.143 2.484 0.109 3.78 0.145 5.688 0.504 1.728 0.217 3.384 0.576 4.968 1.369 1.476 0.828 2.808 2.088 3.852 3.383 0.828 1.189 1.404 2.34 1.729 3.602 0.288 1.188 0.396 2.482 0.468 3.455 0.072 0.9 0.144 1.404 0.072 1.801l-5.364-0.396-0.396 5.076c1.33 0.035 2.66 0.072 4.03 0.107z" fill="#fff"/>
</g>
<metadata><rdf:RDF><cc:Work><dc:format>image/svg+xml</dc:format><dc:type rdf:resource="http://purl.org/dc/dcmitype/StillImage"/><cc:license rdf:resource="http://creativecommons.org/licenses/publicdomain/"/><dc:publisher><cc:Agent rdf:about="http://openclipart.org/"><dc:title>Openclipart</dc:title></cc:Agent></dc:publisher><dc:title>Swiss Army Knife 3</dc:title><dc:date>2010-04-20T19:26:30</dc:date><dc:description>army, camping, clip art, clipart, knife, scouting, swiss, </dc:description><dc:source>http://openclipart.org/detail/49171/swiss-army-knife-3-by-gerald_g-49171</dc:source><dc:creator><cc:Agent><dc:title>Gerald_G</dc:title></cc:Agent></dc:creator><dc:subject><rdf:Bag><rdf:li>army</rdf:li><rdf:li>camping</rdf:li><rdf:li>clip art</rdf:li><rdf:li>clipart</rdf:li><rdf:li>knife</rdf:li><rdf:li>scouting</rdf:li><rdf:li>swiss</rdf:li></rdf:Bag></dc:subject></cc:Work><cc:License rdf:about="http://creativecommons.org/licenses/publicdomain/"><cc:permits rdf:resource="http://creativecommons.org/ns#Reproduction"/><cc:permits rdf:resource="http://creativecommons.org/ns#Distribution"/><cc:permits rdf:resource="http://creativecommons.org/ns#DerivativeWorks"/></cc:License></rdf:RDF></metadata></svg>
