<?xml version="1.0" encoding="utf-8"?>
<!-- License: Apache. Made by googlefonts: https://github.com/googlefonts/noto-emoji -->
<svg width="800px" height="800px" viewBox="0 0 128 128" xmlns="http://www.w3.org/2000/svg" xmlns:xlink="http://www.w3.org/1999/xlink" aria-hidden="true" role="img" class="iconify iconify--noto" preserveAspectRatio="xMidYMid meet"><path d="M64.52 50.91c-.26-9.45-.37-17.84-6.27-26.94C48.75 9.32 22.97-2.35 13.03 5.16C2.01 13.49 8.8 39.24 19.57 50.64C34.25 66.2 46.7 60.17 53.49 64.02c5.84 3.31 18.2 20.38 26.28 29.74s22.17 25.12 24.99 28.07c2.82 2.95 6.94 2.65 8.07 2.05c1.61-.84 4.72-3.45 4.34-4.47c-.38-1.03-45.35-52.82-45.35-52.82l-6.92-9.23c-.01-.01-.25-1.71-.38-6.45z" fill="#9d9d9d"></path><path d="M14.5 7.56c-8.95 7.36-3.08 28.02 3.79 36.53C31.75 60.75 44.26 55.3 51.82 58.38c7.56 3.08 8.97 6.54 18.33 16.92s36.29 46.35 43.39 47.97c.9.21 3.88-2.93 5.42-4.85c1.54-1.92 2.97-4.53 1.82-6.33c-1.15-1.79-52.94-54.73-55.63-57.42c-2.69-2.69-2.95-7.95-3.2-10.51c-.26-2.56-1.15-16.92-12.18-25.76S22.45 1.03 14.5 7.56z" fill="#c8c8c8"></path><path d="M53.72 29.36s1.23 14.27-11.43 12.47c-13.22-1.87-19.28-19.75-22.02-25.7c-2.58-5.61-7.84-4.81-8.03 2.27c-.22 8.27 5.78 26.76 21.93 33.17c15.2 6.03 24.94.76 24.66-8.22c-.3-9.16-5.11-13.99-5.11-13.99z" fill="#e0e0e0"></path><path d="M37.84 44.64c8.69 3.04 14.46-.57 15.02 5.01c.39 3.85-6.61 6.71-19.09 1.89s-18.71-18.9-19.65-21.92s-1.7-7.47.09-8.22s3.69 2.46 5.95 6.8s6.63 12.57 17.68 16.44z" fill="#ffffff"></path><path d="M105.55 111.81c-1.45 1.09 4.63 8.5 7.56 8.98c2.93.47 7.22-5.29 5.39-6.14c-1.23-.57-1.98 1.13-5.39.38c-3.4-.76-5.67-4.63-7.56-3.22z" fill="#ffffff"></path></svg>